<svg xmlns="http://www.w3.org/2000/svg" viewBox="0 0 159.46 59.01">
  <g id="Layer_2" data-name="Layer 2">
    <g id="Layer_1-2" data-name="Layer 1">
      <path d="M86.32,46.27H71.19l-2.13,4.64H64.31L76.67,24.3h4.22L93.24,50.91H88.49Zm-2-4.33L78.76,30l-5.55,12Z" style="fill:#6c4f2f"/>
      <path
        d="M102.4,31.44a7.41,7.41,0,0,1,6.35,3.08V31.9h4.15V49.77c0,6-3.43,9.24-9.74,9.24-3.91,0-6.61-1.22-8.51-3.84l2.51-3.05a6.85,6.85,0,0,0,6,3.12c3.77,0,5.67-1.86,5.67-5.59v-1.4a7.52,7.52,0,0,1-6.39,3c-5.55,0-9.12-3.88-9.12-9.84S97,31.44,102.4,31.44Zm.95,3.92c-3.46,0-5.77,2.43-5.77,6s2.31,6.05,5.77,6.05,5.59-2.36,5.59-6.05S106.74,35.36,103.35,35.36Z"
        style="fill:#6c4f2f"/>
      <path
        d="M135.25,50.91h-4.14v-2.7a7.74,7.74,0,0,1-6.51,3.15c-5.24,0-8.89-4.06-8.89-10s3.61-10,8.86-10a8,8,0,0,1,6.54,3.2V24.3h4.14ZM119.93,41.4c0,3.62,2.28,6.05,5.7,6.05s5.66-2.4,5.66-6.05-2.28-6-5.66-6S119.93,37.79,119.93,41.4Z"
        style="fill:#6c4f2f"/>
      <path d="M138.78,26.43a2.89,2.89,0,1,1,2.89,2.89A2.79,2.79,0,0,1,138.78,26.43Zm4.95,24.48h-4.11v-19h4.11Z" style="fill:#6c4f2f"/>
      <path
        d="M157.6,31.44a7.35,7.35,0,0,1,1.86.23V36a9.05,9.05,0,0,0-2.09-.26c-3.8,0-5.21,2.39-5.21,6.42v8.71h-4.1v-19H152v3A6,6,0,0,1,157.6,31.44Z"
        style="fill:#6c4f2f"/>
      <polygon points="25.84 0 17.63 16.18 35.26 50.91 51.68 50.91 25.84 0" style="fill:#98b7f5"/>
      <polygon points="0 50.91 19.7 50.91 9.85 31.51 0 50.91" style="fill:#6c4f2f"/>
    </g>
  </g>
</svg>
